<?xml version="1.0"?>
<svg width="1120" height="702" xmlns="http://www.w3.org/2000/svg" xmlns:svg="http://www.w3.org/2000/svg">
 <defs>
  <filter color-interpolation-filters="sRGB" filterUnits="userSpaceOnUse" height="820" id="filter0_d_1_180" width="1238" x="0" y="0">
   <feFlood flood-opacity="0" result="BackgroundImageFix"/>
   <feColorMatrix in="SourceAlpha" result="hardAlpha" type="matrix" values="0 0 0 0 0 0 0 0 0 0 0 0 0 0 0 0 0 0 127 0"/>
   <feOffset dy="6"/>
   <feGaussianBlur stdDeviation="29.5"/>
   <feColorMatrix type="matrix" values="0 0 0 0 0.208402 0 0 0 0 0.190642 0 0 0 0 0.329167 0 0 0 0.08 0"/>
   <feBlend in2="BackgroundImageFix"/>
   <feBlend in="SourceGraphic" in2="effect1_dropShadow_1_180"/>
  </filter>
  <clipPath id="clip0_1_180">
   <rect fill="white" height="452.46" id="svg_1" transform="translate(111 281)" width="1016.1"/>
  </clipPath>
 </defs>
 <g class="layer">
  <title>Layer 1</title>
  <g filter="url(#filter0_d_1_180)" id="svg_2">
   <path d="m1,1l1120,0l0,702l-1120,0l0,-702z" fill="#FFE0E2" id="svg_3"/>
  </g>
  <path clip-rule="evenodd" d="m687.8,25.85l-4.11,-2.85l-9.69,13.97l4.11,2.85l9.69,-13.97zm-531.68,14.15l4.96,0.62l-2.12,16.87l-4.96,-0.62l2.12,-16.87zm-81.4,22l2.5,4.33l-14.72,8.5l-2.5,-4.33l14.72,-8.5zm201.97,95l4.11,2.85l-9.69,13.97l-4.11,-2.85l9.69,-13.97zm-53.61,-54.38l-4.96,-0.62l-2.12,16.87l4.96,0.62l2.12,-16.87zm-174.52,14.38l-3.56,3.51l11.93,12.11l3.56,-3.51l-11.93,-12.11zm800.16,52l2.5,4.33l-14.72,8.5l-2.5,-4.33l14.72,-8.5zm209.5,-108.67l-2.5,-4.33l-14.72,8.5l2.5,4.33l14.72,-8.5zm-58.1,160.67l4.96,0.62l-2.12,16.87l-4.96,-0.62l2.12,-16.87zm51.96,212.62l-4.96,-0.62l-2.12,16.87l4.96,0.62l2.12,-16.87zm-186.08,-133.11l3.56,-3.51l11.93,12.11l-3.56,3.51l-11.93,-12.11zm-145.44,12.49l-3.56,3.51l11.93,12.11l3.56,-3.51l-11.93,-12.11zm-500.16,-82.46l-2.4,-4.39l14.92,-8.15l2.4,4.39l-14.92,8.15zm-82.02,8.69l4.95,0.74l2.52,-16.81l-4.94,-0.74l-2.53,16.81zm-88.44,-34.68l-4.94,-0.74l2.52,-16.81l4.95,0.74l-2.53,16.81zm458.06,192.26l4.95,0.74l2.52,-16.81l-4.95,-0.74l-2.52,16.81zm61.31,167.19l-2.57,4.29l-14.58,-8.74l2.57,-4.29l14.58,8.74zm-249.67,-340.19l3.64,-3.42l-11.64,-12.39l-3.64,3.42l11.64,12.39zm103.66,-171.81l4.11,2.85l-9.69,13.97l-4.1,-2.85l9.68,-13.97zm-14.9,171.54l-2.4,-4.39l14.92,-8.15l2.4,4.39l-14.92,8.15zm-134.4,-161.39l2.4,4.39l14.92,-8.15l-2.4,-4.39l-14.92,8.15zm59.94,58.82l-4.94,-0.74l2.52,-16.81l4.94,0.74l-2.52,16.81zm170.7,-45.16l3.64,-3.42l-11.64,-12.39l-3.64,3.42l11.64,12.39zm-357.55,365.73l-5.09,-0.72l2.52,-16.82l5.09,0.72l-2.52,16.82zm-72.86,-74.23l-4.22,-2.86l-10.01,13.94l4.22,2.86l10.01,-13.94zm110.77,-79.77l4.9,-1.54l5.39,16.17l-4.9,1.54l-5.39,-16.17zm376.9,16.46l-4.9,1.54l5.39,16.17l4.9,-1.54l-5.39,-16.17zm356.5,-229.46l-2.4,-4.39l14.92,-8.15l2.4,4.39l-14.92,8.15zm56.75,69.76l4.99,-0.34l-1.15,-16.96l-4.99,0.34l1.15,16.96zm-147.82,-71.33l-4.95,-0.74l2.52,-16.81l4.95,0.74l-2.52,16.81zm-84.39,101.13l2.43,-4.37l-14.84,-8.28l-2.44,4.37l14.85,8.28zm264,372.45l-4.94,-0.74l2.52,-16.81l4.94,0.74l-2.52,16.81zm-102.04,-335.55l-4.9,1.54l5.39,16.17l4.9,-1.54l-5.39,-16.17zm-109.9,147.54l4.9,-1.54l5.39,16.17l-4.9,1.54l-5.39,-16.17zm-495.21,128.46l-1.79,4.69l16.41,5.9l1.78,-4.69l-16.4,-5.9zm-0.56,-166.3l3.69,-3.4l12.05,12.6l-3.69,3.4l-12.05,-12.6zm27.87,12.93l-1.66,-4.74l-16.34,6.07l1.65,4.74l16.35,-6.07z" fill="#FFEFF0" fill-rule="evenodd" id="svg_4"/>
  <path clip-rule="evenodd" d="m762.62,80.96c1.13,-5.07 6.71,-7.73 11.36,-5.42l20.46,10.16c3.38,1.68 5.13,5.49 4.19,9.14l-4.96,19.48c-1.13,4.44 -5.76,7.03 -10.13,5.67l-20.68,-6.45c-3.98,-1.24 -6.34,-5.32 -5.43,-9.38l5.19,-23.2zm-672.79,65.06c-1.95,4.82 1.15,10.19 6.29,10.92l52.91,7.5c4.19,0.59 8.13,-2.18 8.96,-6.34l7.88,-39c0.89,-4.43 -2.06,-8.72 -6.52,-9.47l-45.01,-7.57c-3.7,-0.62 -7.34,1.42 -8.75,4.9l-15.76,39.06zm889.16,129.95c-1.83,4.86 1.39,10.15 6.54,10.76l64.44,7.69c4.12,0.49 7.92,-2.24 8.78,-6.3l12.74,-60.48c0.95,-4.5 -2.09,-8.87 -6.64,-9.56l-54.2,-8.16c-3.74,-0.57 -7.35,1.56 -8.68,5.08l-22.98,60.97zm-622.36,127.4c-0.95,5.1 -6.44,7.96 -11.17,5.82l-65.39,-29.61c-3.43,-1.55 -5.32,-5.29 -4.52,-8.98l13.46,-62.01c0.97,-4.48 5.5,-7.23 9.92,-6.02l65.65,17.91c4.02,1.1 6.52,5.09 5.76,9.18l-13.71,73.71zm-240.95,272.88c2.1,4.87 8.26,6.39 12.38,3.06l36.78,-29.72c3.02,-2.44 3.86,-6.69 1.98,-10.09l-37.81,-68.48c-2.33,-4.23 -7.84,-5.44 -11.73,-2.59l-31.39,22.98c-3,2.21 -4.09,6.2 -2.62,9.62l32.41,75.22zm709.92,-176.11c-4.25,2.98 -10.18,1.18 -12.05,-3.67l-7.38,-19.09c-1.36,-3.52 -0.07,-7.51 3.09,-9.58l13.41,-8.78c3.86,-2.52 9.05,-1.27 11.33,2.74l9.63,16.89c2.05,3.59 1.03,8.15 -2.36,10.52l-15.67,10.97zm219.43,173.21c5.3,0.17 9.29,-4.75 8.04,-9.89l-11.45,-46.88c-1.04,-4.3 -5.37,-6.93 -9.66,-5.88l-18.9,4.61c-4.24,1.04 -6.87,5.28 -5.9,9.54l9.39,41.58c0.8,3.55 3.9,6.11 7.54,6.23l20.94,0.69zm-945.47,-420.55c-0.11,-5.19 -5.05,-8.9 -10.07,-7.56l-22.96,6.15c-4.02,1.08 -6.54,5.06 -5.8,9.16l3.87,21.31c0.82,4.51 5.25,7.41 9.71,6.36l19.56,-4.63c3.67,-0.86 6.24,-4.18 6.16,-7.95l-0.47,-22.84z" fill="#FFE6E7" fill-rule="evenodd" id="svg_5"/>
  <g clip-path="url(#clip0_1_180)" id="svg_6">
   <path d="m59.91,269.45l12.78,48.34l30.15,-8.86l-12.78,-48.35l-30.15,8.87z" fill="#362E2D" id="svg_7"/>
   <path d="m57.2,272.76l2.6,-3.06l28.7,-5.16l12.8,43.54l-10.8,25.63l-20.2,-13.92l-13.1,-47.03z" fill="white" id="svg_8"/>
   <path d="m78.8,291.42l12.8,44.29l-21.7,-14.66l-12.7,-48.29l21.6,18.66z" fill="#4E3734" id="svg_9"/>
   <path d="m59.8,270.55l26.8,-1.06l13,42.6l1.7,-4.01l-12.8,-43.54l-27.9,4.95l-0.8,1.06z" fill="#F7F7F7" id="svg_10"/>
   <path d="m179.9,341.09c16.85,0 30.5,-14.4 30.5,-32.16c0,-17.76 -13.65,-32.16 -30.5,-32.16c-16.84,0 -30.5,14.4 -30.5,32.16c0,17.76 13.66,32.16 30.5,32.16z" fill="#8C503E" id="svg_11"/>
   <path d="m319.2,613.34c0,0 3.8,10.02 5.5,15.5c1.7,5.49 4.7,12.34 7.2,12.55c2.5,0.21 3,-10.02 1.4,-25.62c-1.6,-15.5 -0.4,-17.72 -8.5,-17.61c-3.6,0 -5.6,-0.32 -5.6,-0.32l0,15.5z" fill="#FF6ED9" id="svg_12"/>
   <path d="m95.2,667.54c0,0 -10.9,1.79 -16.6,4.22c-5.7,2.42 -10.1,4.85 -10.1,7.8c0,2.32 10.4,1.58 26.6,1.58c16.6,0.11 21.3,0.53 18.4,-8.33c-1,-3.06 -3.6,-5.59 -3.6,-5.59l-14.7,0.32z" fill="#FF6ED9" id="svg_13"/>
   <path d="m210.4,308.93c0,-17.82 -13.7,-32.16 -30.5,-32.16c-4.6,0 -9,1.05 -12.9,3.05l-0.8,0.43c-1,2 -1.6,4.21 -1.6,6.64c0,7.7 5.9,13.92 13.2,13.92c0.6,0 1.2,-0.11 1.9,-0.11c-0.8,1.06 -1.2,2.43 -1.2,3.9c0,3.27 2.4,6.01 5.4,6.44c-0.3,0.84 -0.4,1.68 -0.4,2.53c0,4 3.1,7.27 6.9,7.27l0.1,0c0.6,2.95 3,5.06 6,5.06c0.8,0 1.6,-0.21 2.3,-0.42c0.4,2.21 2.3,3.9 4.5,3.9l1.7,-1.69c3.3,-5.27 5.4,-11.8 5.4,-18.76z" fill="#4E3734" id="svg_14"/>
   <path d="m88.8,346.78c0,0 0.6,-10.44 -2.3,-16.03c-2.9,-5.58 -9.1,-8.64 -12,-13.49c-2.8,-4.85 -2.7,-11.5 -5.4,-12.13c-2.7,-0.63 -7.2,10.76 -4.3,16.24c2.8,5.48 6.4,9.07 8.2,14.65c1.8,5.59 4.6,10.55 6.3,12.13c1.8,1.58 9.5,-1.37 9.5,-1.37z" fill="#8C503E" id="svg_15"/>
   <path d="m259.3,472.15c0,0 3.5,9.81 8.4,13.6c4.8,3.8 11.7,3.91 16.2,7.18c4.5,3.16 6.9,9.28 9.6,8.64c2.7,-0.63 2.3,-12.97 -2.4,-16.66c-4.7,-3.79 -9.4,-5.48 -13.2,-9.8c-3.8,-4.33 -8.3,-7.6 -10.5,-8.33c-2.2,-0.74 -8.1,5.37 -8.1,5.37z" fill="#8C503E" id="svg_16"/>
   <path d="m143.2,493.77c0,0 -19.5,42.91 -28,76.23c-11.2,44.08 -20,97.65 -20,97.65l14.6,-0.22c0,0 17.7,-21.72 43.3,-65.69c25.8,-44.39 37.5,-72.54 37.5,-72.54c0,0 17.3,65.8 28.6,76.13c15.8,14.44 52.7,13.81 64.4,12.97c11.7,-0.84 35.5,-4.85 35.5,-4.85l0,-15.5c0,0 -30,-5.06 -42,-10.34c-12,-5.27 -26.3,-9.59 -26.3,-9.59c0,0 -4.8,-35.22 -8.3,-53.88c-3.5,-18.67 -8.3,-40.07 -8.3,-40.07l-91,9.7z" fill="#5441AF" id="svg_17"/>
   <path d="m190.7,529.09l5.8,-12.86c0,0 3.3,6.85 2.9,15.6c-0.3,8.76 -2.1,20.46 -2.1,20.46l-6.6,-23.2z" fill="#4F3D9D" id="svg_18"/>
   <path d="m53,361.75c0,0 5.2,0.21 13.7,6.01c19,12.97 25.2,41.02 48.2,45.13c19.3,3.48 31.8,-2.63 31.8,-2.63c0,0 -7.5,22.67 -9.5,33c-2,10.34 -1.8,29 -9.8,37.22c-8,8.23 -11.7,12.13 -11.7,12.13c0,0 35,6.64 63.3,1.05c28.3,-5.58 43.7,-7.59 48.8,-7.38c5.2,0.21 13.2,1.27 13.2,1.27c0,0 -3.2,-7.59 -6.2,-15.29c-3,-7.7 -3.7,-15.5 -3.7,-15.5c0,0 19,16.03 22,21.3c3,5.27 3.5,14.02 3.5,14.02c0,0 4.3,-9.8 7.3,-13.18c3,-3.37 5.3,-7.38 9,-10.33c3.7,-2.95 5.8,-5.27 5.8,-5.27c0,0 -4,0.31 -7.5,-2.96c-3.5,-3.37 -23.2,-28.78 -27.2,-32.9c-4,-4 -19,-21.3 -19,-21.3c0,0 -1.8,-55.04 -32.7,-53.98c-19.5,0.63 -30.8,5.8 -43.2,12.86c-12.3,7.07 -23.2,14.77 -23.2,14.77c0,0 -21,-13.4 -28.3,-29.42c-2.5,-5.38 -3.6,-9.39 -3.6,-9.39c0,0 -7.7,1.48 -18.3,6.96c-11.3,6.01 -22.7,13.81 -22.7,13.81z" fill="#FF353A" id="svg_19"/>
   <path d="m146.7,410.26c0,0 10.9,-0.32 21.2,-3.59c10.3,-3.37 21.4,-8.54 24.1,-15.18c2.7,-6.64 3.9,-13.39 3.9,-13.39c0,0 1.9,11.07 -2.5,21.51c-4.4,10.44 -18.6,15.5 -23.9,17.5c-5.3,2.01 -26.7,5.59 -26.7,5.59l3.9,-12.44z" fill="#E2303D" id="svg_20"/>
   <path d="m226.2,417.95c0,0 1.6,18.56 2.3,24.05c0.7,5.48 2.8,14.97 2.8,14.97l5.2,4.43c0,0 -3.7,-11.71 -5.1,-20.04c-1.6,-8.33 -5.2,-23.41 -5.2,-23.41z" fill="#E2303D" id="svg_21"/>
   <path d="m187.4,486.49c-3.5,0 -6.3,-2.95 -6.3,-6.64c0,-3.69 2.8,-6.64 6.3,-6.64c3.5,0 6.3,2.95 6.3,6.64c0,3.69 -2.8,6.64 -6.3,6.64zm0,-12.23c-2.9,0 -5.3,2.53 -5.3,5.59c0,3.06 2.4,5.59 5.3,5.59c2.9,0 5.3,-2.53 5.3,-5.59c0,-3.06 -2.3,-5.59 -5.3,-5.59z" fill="#5441AF" id="svg_22"/>
   <path d="m215,380.1c2,0 3.8,-1.05 5,-2.64c-0.1,-0.42 -0.3,-0.84 -0.4,-1.26c-0.9,1.69 -2.6,2.74 -4.5,2.74c-2.9,0 -5.3,-2.53 -5.3,-5.59c0,-3.05 2.4,-5.59 5.3,-5.59c0.3,0 0.6,0 0.9,0.11c-0.2,-0.42 -0.4,-0.74 -0.6,-1.16c-0.1,0 -0.2,0 -0.3,0c-3.5,0 -6.3,2.95 -6.3,6.64c0,3.69 2.7,6.75 6.2,6.75z" fill="#5441AF" id="svg_23"/>
   <path d="m132.6,489.45c5,0 9.1,-4.33 9.1,-9.6c0,-5.27 -4,-9.49 -9,-9.6c-0.1,0.32 -0.2,0.74 -0.3,1.06c0.1,0 0.1,0 0.2,0c4.5,0 8.1,3.8 8.1,8.54c0,4.75 -3.6,8.54 -8.1,8.54c-3.4,0 -6.4,-2.32 -7.6,-5.48c-0.3,0.32 -0.5,0.53 -0.8,0.84c1.5,3.38 4.7,5.7 8.4,5.7z" fill="#5441AF" id="svg_24"/>
   <path d="m157,384.95c-4,0 -7.2,-3.37 -7.2,-7.59c0,-4.22 3.2,-7.59 7.2,-7.59c4,0 7.2,3.37 7.2,7.59c0,4.22 -3.3,7.59 -7.2,7.59zm0,-14.02c-3.4,0 -6.2,2.95 -6.2,6.53c0,3.59 2.8,6.54 6.2,6.54c3.4,0 6.2,-2.95 6.2,-6.54c0,-3.58 -2.8,-6.53 -6.2,-6.53z" fill="#5441AF" id="svg_25"/>
   <path d="m99.8,370.93c-2.5,0 -4.6,-2.22 -4.6,-4.85c0,-2.64 2.1,-4.85 4.6,-4.85c2.5,0 4.6,2.21 4.6,4.85c0,2.63 -2.1,4.85 -4.6,4.85zm0,-8.65c-2,0 -3.6,1.69 -3.6,3.8c0,2.11 1.6,3.79 3.6,3.79c2,0 3.6,-1.68 3.6,-3.79c0,-2.11 -1.6,-3.8 -3.6,-3.8z" fill="#5441AF" id="svg_26"/>
   <path d="m247.9,431.87c-0.6,1.16 -1.8,1.9 -3.1,1.9c-2,0 -3.6,-1.69 -3.6,-3.79c0,-1.48 0.8,-2.75 2,-3.38c-0.2,-0.21 -0.5,-0.53 -0.7,-0.74c-1.4,0.85 -2.3,2.43 -2.3,4.22c0,2.64 2.1,4.85 4.6,4.85c1.6,0 3,-0.84 3.8,-2.11c-0.2,-0.42 -0.4,-0.74 -0.7,-0.95z" fill="#5441AF" id="svg_27"/>
   <path d="m199.4,420.17c-2.5,0 -4.6,-2.22 -4.6,-4.85c0,-2.64 2.1,-4.85 4.6,-4.85c2.5,0 4.6,2.21 4.6,4.85c0,2.63 -2,4.85 -4.6,4.85zm0,-8.54c-2,0 -3.6,1.69 -3.6,3.79c0,2.11 1.6,3.8 3.6,3.8c2,0 3.6,-1.69 3.6,-3.8c0,-2.1 -1.6,-3.79 -3.6,-3.79z" fill="#5441AF" id="svg_28"/>
   <path d="m67.2,363.33c-1.6,0 -3,1.06 -3.7,2.43c0.3,0.21 0.6,0.32 0.9,0.53c0.5,-1.16 1.6,-1.9 2.8,-1.9c1.7,0 3.1,1.48 3.1,3.27c0,0.84 -0.3,1.69 -0.9,2.21c0.3,0.21 0.5,0.43 0.8,0.63c0.7,-0.73 1.1,-1.79 1.1,-2.84c0,-2.43 -1.8,-4.33 -4.1,-4.33z" fill="#5441AF" id="svg_29"/>
   <path d="m151.2,443.37c-3,0 -5.4,-2.53 -5.4,-5.7c0,-3.16 2.4,-5.69 5.4,-5.69c3,0 5.4,2.53 5.4,5.69c0,3.17 -2.4,5.7 -5.4,5.7zm0,-10.44c-2.4,0 -4.4,2.11 -4.4,4.64c0,2.53 2,4.64 4.4,4.64c2.4,0 4.4,-2.11 4.4,-4.64c0,-2.53 -1.9,-4.64 -4.4,-4.64z" fill="#5441AF" id="svg_30"/>
   <path d="m249.9,465.72c-2.2,0 -4.1,1.37 -5,3.38c0.3,0.21 0.5,0.52 0.8,0.73c0.6,-1.79 2.2,-3.16 4.2,-3.16c2.4,0 4.4,2.11 4.4,4.64c0,2 -1.2,3.69 -2.9,4.32c0.3,0.32 0.5,0.53 0.7,0.85c1.9,-0.95 3.2,-2.85 3.2,-5.17c0,-3.06 -2.4,-5.59 -5.4,-5.59z" fill="#5441AF" id="svg_31"/>
   <path d="m134.5,404.25c-2.3,0 -4.1,-1.9 -4.1,-4.33c0,-2.42 1.8,-4.32 4.1,-4.32c2.3,0 4.1,1.9 4.1,4.32c0,2.43 -1.8,4.33 -4.1,4.33zm0,-7.59c-1.7,0 -3.1,1.47 -3.1,3.26c0,1.8 1.4,3.27 3.1,3.27c1.7,0 3.1,-1.47 3.1,-3.27c0,-1.79 -1.4,-3.26 -3.1,-3.26z" fill="#5441AF" id="svg_32"/>
   <path d="m215,457.07c-3.2,0 -5.7,-2.74 -5.7,-6.01c0,-3.26 2.6,-6.01 5.7,-6.01c3.1,0 5.7,2.75 5.7,6.01c0,3.27 -2.5,6.01 -5.7,6.01zm0,-11.07c-2.6,0 -4.7,2.22 -4.7,4.96c0,2.74 2.1,4.96 4.7,4.96c2.6,0 4.7,-2.22 4.7,-4.96c0,-2.74 -2.1,-4.96 -4.7,-4.96z" fill="#5441AF" id="svg_33"/>
   <path d="m174.9,454.23c-1.7,0 -3,-1.48 -3,-3.17c0,-1.79 1.4,-3.16 3,-3.16c1.6,0 3,1.48 3,3.16c0,1.69 -1.3,3.17 -3,3.17zm0,-5.38c-1.1,0 -2,0.95 -2,2.11c0,1.16 0.9,2.11 2,2.11c1.1,0 2,-0.95 2,-2.11c0,-1.16 -0.9,-2.11 -2,-2.11z" fill="#5441AF" id="svg_34"/>
   <path d="m102.3,407.52c0.8,-1.06 1.3,-2.43 1.3,-4.01c0,-3.69 -2.8,-6.64 -6.3,-6.64c-1.6,0 -3.1,0.63 -4.2,1.68c0.2,0.32 0.5,0.53 0.7,0.85c0.9,-0.85 2.2,-1.48 3.5,-1.48c2.9,0 5.3,2.53 5.3,5.59c0,1.26 -0.4,2.43 -1.1,3.37c0.2,0.21 0.5,0.43 0.8,0.64z" fill="#5441AF" id="svg_35"/>
   <path d="m79.3,671.13c0,0 1.1,0.63 1.8,1.79c0.7,1.16 0.5,2.95 0.5,2.95" id="svg_36" stroke="#5441AF" stroke-miterlimit="10"/>
   <path d="m83,669.54c0,0 1.1,0.64 1.8,1.8c0.7,1.16 0.5,2.95 0.5,2.95" id="svg_37" stroke="#5441AF" stroke-miterlimit="10"/>
   <path d="m86.6,668.6c0,0 1.1,0.63 1.8,1.79c0.7,1.16 0.5,2.95 0.5,2.95" id="svg_38" stroke="#5441AF" stroke-miterlimit="10"/>
   <path d="m89.9,667.43c0,0 1.1,0.64 1.8,1.8c0.7,1.16 0.5,2.95 0.5,2.95" id="svg_39" stroke="#5441AF" stroke-miterlimit="10"/>
   <path d="m323.9,628.11c0,0 0.5,-1.27 1.6,-2.01c1.1,-0.74 2.8,-0.63 2.8,-0.63" id="svg_40" stroke="#5441AF" stroke-miterlimit="10"/>
   <path d="m322.2,624.31c0,0 0.5,-1.27 1.6,-2.01c1.1,-0.73 2.8,-0.63 2.8,-0.63" id="svg_41" stroke="#5441AF" stroke-miterlimit="10"/>
   <path d="m321.2,620.51c0,0 0.5,-1.26 1.6,-2c1.1,-0.74 2.8,-0.63 2.8,-0.63" id="svg_42" stroke="#5441AF" stroke-miterlimit="10"/>
   <path d="m319.9,617.14c0,0 0.5,-1.27 1.6,-2.01c1.1,-0.73 2.8,-0.63 2.8,-0.63" id="svg_43" stroke="#5441AF" stroke-miterlimit="10"/>
   <path d="m576.1,343.2l31.8,40.28l-14.8,22.98l-30.6,-38.06l13.6,-25.2z" fill="#4F3D9D" id="svg_44"/>
   <path d="m562.5,371.03l0.1,-2.42l13.6,-23.83l30.1,38.7l-10.3,15.6l-10.8,-4.53l-22.7,-23.52z" fill="white" id="svg_45"/>
   <path d="m615.5,414.79l1.5,-1.47l-27.2,-34.8l-27.3,-8.22l0,0.73l7.7,10.44l45.3,33.32z" fill="#F7F7F7" id="svg_46"/>
   <path d="m589.2,379.57l27.8,35.96l-25.3,-4.96l-29.2,-39.54l26.7,8.54z" fill="#5441AF" id="svg_47"/>
   <path d="m562.5,368.4l0,2.63l0.6,0.21l-0.1,-3.9l-0.5,1.06z" fill="#362E2D" id="svg_48"/>
   <path d="m653.6,512.86c0,0 -20.8,18.97 -28.8,26.88c-8,7.91 -12,11.07 -14,16.87c-2,5.8 -6.5,47.45 -7.3,60.42c-0.8,12.97 -1.5,40.92 -1.5,40.92l13.8,0c0,0 5,-18.46 10,-29.32c5,-10.86 12.3,-23.2 15.5,-32.69c3.2,-9.49 4.8,-22.45 4.8,-22.45c0,0 12.8,-1.27 27.8,-9.18c15,-7.91 21.3,-11.91 21.3,-11.91c0,0 9.3,19.5 17.3,35.85c8,16.34 11,21.4 18,28.47c7,7.06 34.2,19.4 46.7,23.41c17.3,5.48 32.4,7.59 32.4,7.59l2.5,-14.03c0,0 -20,-10.65 -30.9,-18.56c-10,-7.27 -18.3,-15.5 -20.8,-22.35c-2.5,-6.85 -6.1,-45.97 -9.3,-63.58c-3.2,-17.61 -9.5,-25.1 -9.5,-25.1l-88,8.76z" fill="#FF6ED9" id="svg_49"/>
   <path d="m695.1,552.4c0,0 4.1,-2.01 7.6,-4.33c3.5,-2.32 6.4,-4.85 6.4,-4.85c0,0 -0.8,5.8 -3.3,10.86c-2.5,5.06 -5.5,9.28 -5.5,9.28l-5.2,-10.96z" fill="#FF5ED2" id="svg_50"/>
   <path d="m658.4,558.83l-6,-4.96l4.7,-6.32l6,4.95l-4.7,6.33zm-4.6,-5.06l4.4,3.58l3.4,-4.64l-4.4,-3.58l-3.4,4.64z" fill="#5441AF" id="svg_51"/>
   <path d="m622.2,562.1l-4.7,-1.27l1.2,-4.95l4.7,1.26l-1.2,4.96zm-3.5,-2.01l2.8,0.74l0.7,-2.95l-2.8,-0.74l-0.7,2.95z" fill="#5441AF" id="svg_52"/>
   <path d="m691.1,537.42l-4.7,-1.26l1.2,-4.96l4.7,1.27l-1.2,4.95zm-3.5,-2l2.8,0.74l0.7,-2.95l-2.8,-0.74l-0.7,2.95z" fill="#5441AF" id="svg_53"/>
   <path d="m636.8,583.82l-6.4,-6.12l5.8,-6.75l6.4,6.12l-5.8,6.75zm-5,-6.12l4.9,4.75l4.5,-5.17l-4.9,-4.74l-4.5,5.16z" fill="#5441AF" id="svg_54"/>
   <path d="m722.4,538.58l-5.7,-5.27l5,-6.01l5.7,5.27l-5,6.01zm-4.3,-5.27l4.2,3.9l3.7,-4.43l-4.2,-3.9l-3.7,4.43z" fill="#5441AF" id="svg_55"/>
   <path d="m615.2,647.19l-4.7,-1.48l1.4,-4.95l4.7,1.47l-1.4,4.96zm-3.4,-2.21l2.7,0.84l0.8,-2.85l-2.7,-0.84l-0.8,2.85z" fill="#5441AF" id="svg_56"/>
   <path d="m608.9,627.58l-1.5,-7.49l7.1,-1.58l1.5,7.49l-7.1,1.58zm-0.3,-6.75l1.1,5.48l5.2,-1.16l-1.1,-5.48l-5.2,1.16z" fill="#5441AF" id="svg_57"/>
   <path d="m606.2,588.99c0,0.42 -0.1,0.94 -0.1,1.37l1.3,-0.85l2.5,4.01l-3.8,2.63l-0.5,-0.73c-0.1,0.52 -0.1,1.16 -0.2,1.68l0.3,0.53l5.5,-3.69l-3.5,-5.8l-1.5,0.85z" fill="#5441AF" id="svg_58"/>
   <path d="m644.2,527.09l-4.5,2.85l-1.6,-2.74c-0.3,0.21 -0.5,0.42 -0.8,0.73l2,3.48l6.2,-3.9l-2.7,-4.64c-0.3,0.21 -0.5,0.42 -0.8,0.74l2.2,3.48z" fill="#5441AF" id="svg_59"/>
   <path d="m734.5,591.52l-4.8,-6.23l5.9,-5.06l4.8,6.22l-5.9,5.07zm-3.3,-6.02l3.5,4.54l4.3,-3.69l-3.5,-4.53l-4.3,3.68z" fill="#5441AF" id="svg_60"/>
   <path d="m737.3,615.24l-4.3,-2.32l2.2,-4.53l4.3,2.32l-2.2,4.53zm-3,-2.74l2.6,1.37l1.3,-2.74l-2.6,-1.37l-1.3,2.74z" fill="#5441AF" id="svg_61"/>
   <path d="m742,552.92l-4.3,-2.32l2.2,-4.53l4.3,2.32l-2.2,4.53zm-3,-2.84l2.6,1.37l1.3,-2.74l-2.6,-1.37l-1.3,2.74z" fill="#5441AF" id="svg_62"/>
   <path d="m762.8,597.74c-0.2,-0.32 -0.4,-0.53 -0.6,-0.85l-3.6,2.64l-3.8,-5.8l4.7,-3.37c-0.1,-0.32 -0.2,-0.74 -0.2,-1.16l-5.8,4.21l4.9,7.49l4.4,-3.16z" fill="#5441AF" id="svg_63"/>
   <path d="m799.6,637.28l-7.3,-0.11l0.1,-7.69l7.3,0.1l-0.1,7.7zm-6.3,-1.16l5.3,0.1l0.1,-5.59l-5.3,-0.1l-0.1,5.59z" fill="#5441AF" id="svg_64"/>
   <path d="m765,634.12l-2.2,-6.54l6.2,-2.32l2.2,6.53l-6.2,2.33zm-0.9,-5.91l1.5,4.53l4.3,-1.58l-1.5,-4.53l-4.3,1.58z" fill="#5441AF" id="svg_65"/>
   <path d="m706.3,575.7l9.1,3.69l-3.1,8.54c0,0.11 0.1,0.21 0.1,0.21c0.2,0.32 0.3,0.63 0.5,1.06l3.8,-10.44l-11.1,-4.54c0.2,0.53 0.4,0.95 0.7,1.48z" fill="#5441AF" id="svg_66"/>
   <path d="m625,609.55l5.5,8.01l1.3,-1.05c0.4,-0.74 0.7,-1.38 1.1,-2.11l-2.2,1.68l-4.3,-6.32l6,-4.54l3,4.33c0.2,-0.32 0.3,-0.74 0.5,-1.06l-3.2,-4.74l-7.7,5.8z" fill="#5441AF" id="svg_67"/>
   <path d="m696.8,368.61c16.84,0 30.5,-14.4 30.5,-32.16c0,-17.76 -13.66,-32.16 -30.5,-32.16c-16.84,0 -30.5,14.4 -30.5,32.16c0,17.76 13.66,32.16 30.5,32.16z" fill="#DF8E89" id="svg_68"/>
   <path d="m602.1,657.84c0,0 0.3,4.01 -1.3,4.85c-3.1,1.9 -8.2,4.96 -11.1,6.96c-4.3,2.95 -9.6,8.12 -9.1,10.75c0.5,2.53 9.6,0.22 22.8,-5.16c13.2,-5.27 15.7,-3.8 13.4,-12.02c-1,-3.69 -1.3,-5.7 -1.3,-5.7l-13.4,0.32z" fill="#5441AF" id="svg_69"/>
   <path d="m809.4,647.61c0,0 3.7,0.53 4.3,2.32c1.1,3.59 3,9.49 4.3,12.87c1.9,5.06 5.7,11.49 8.2,11.49c2.5,0 2.1,-9.91 -0.2,-24.57c-2.3,-14.66 -0.4,-16.98 -8.5,-16.24c-3.6,0.32 -5.5,0.21 -5.5,0.21l-2.6,13.92z" fill="#5441AF" id="svg_70"/>
   <path d="m604.9,416.69c0,0 -2.3,-10.12 -6.7,-14.55c-4.3,-4.43 -11.1,-5.48 -15.2,-9.18c-4.1,-3.69 -5.8,-10.12 -8.5,-9.91c-2.7,0.21 -3.8,12.55 0.4,16.87c4.2,4.33 8.7,6.65 12,11.5c3.3,4.85 7.4,8.64 9.4,9.59c2,0.95 8.6,-4.32 8.6,-4.32z" fill="#DF8E89" id="svg_71"/>
   <path d="m756.7,306.08c0,0 -0.2,-7.17 2.7,-12.76c2.9,-5.59 11.1,-8.96 13.9,-13.81c2.8,-4.85 7.4,-9.7 10.1,-10.34c2.7,-0.63 2.5,8.12 -0.3,13.61c-2.8,5.48 -8.9,6.85 -10.7,12.54c-1.8,5.7 -4.6,10.55 -6.2,12.13c-1.7,1.48 -9.5,-1.37 -9.5,-1.37z" fill="#DF8E89" id="svg_72"/>
   <path d="m675.2,300.38c0,0 -2,13.19 9.1,20.36c11.1,7.17 18.9,3.58 18.9,3.58c0,0 -2.3,12.76 4.9,22.78c7.2,10.01 10.4,12.02 10.4,12.02c0,0 17.9,-13.82 13.9,-28.68c-2.3,-8.44 -7.7,-10.44 -7.7,-10.44c0,0 0.3,-8.33 -8,-14.76c-8.3,-6.44 -24.3,-1.16 -31,-1.59c-6.7,-0.42 -10.5,-3.27 -10.5,-3.27z" fill="#FF353A" id="svg_73"/>
   <path d="m595.1,423.23l9.5,-10.55l7,7.7c0,0 9.8,1.9 14.6,3.58c4.8,1.69 8.9,4.54 8.9,4.54c0,0 22.9,-22.04 35.1,-28.47c12.2,-6.54 31.2,-10.54 46,-18.24c14.8,-7.7 28,-22.46 28,-22.46c0,0 5,-16.66 6.8,-23.41c1.8,-6.64 4,-18.45 4,-18.45l0,-11.71l13,0l0,10.76c0,0 4,11.28 5.2,30.37c1.2,19.19 -3.2,34.58 -3.2,34.58c0,0 -17.5,17.08 -23.7,23.52c-6.2,6.53 -14.3,15.5 -14.3,15.5c0,0 5.7,21.61 10.5,43.76c4.8,22.14 5.7,42.17 5.7,42.17c0,0 -21.3,16.87 -50.7,17.93c-29.4,1.05 -48.8,-11.28 -48.8,-11.28c0,0 0.3,-18.25 1.7,-30.37c1.3,-12.13 7.3,-30.05 7.3,-30.05c0,0 -5,6.01 -9.7,9.7c-4.7,3.69 -10,6.64 -10,6.64c0,0 -14.2,-5.06 -22.8,-16.87c-8.7,-11.81 -12.7,-21.83 -12.7,-21.83l-7.4,-7.06z" fill="#5441AF" id="svg_74"/>
   <path d="m657.7,452.75c0,0 5.6,-17.19 8.8,-26.68c3.2,-9.49 4.7,-13.07 4.7,-13.07c0,0 -7.8,7.8 -12.2,20.77c-4.4,12.97 -7.7,25.94 -7.7,25.94l6.4,-6.96z" fill="#4F3D9D" id="svg_75"/>
   <path d="m498.2,510.64l2.1,-4.01l32.8,-20.14l12.9,24.15l-0.6,2.95l-34.1,20.88l-13.1,-23.83z" fill="#FF5ED2" id="svg_76"/>
   <path d="m532.43,489.82l-34.21,20.83l13,23.74l34.21,-20.82l-13,-23.75z" fill="#FF6ED9" id="svg_77"/>
   <path d="m364.2,666.17c0,0 -5.6,-36.17 -0.3,-71.6c5.4,-35.95 14.5,-73.49 14.5,-73.49c0,0 28.8,6.33 49.3,2.32c20.5,-4.01 45,-11.28 45,-11.28c0,0 4.2,20.35 6.6,44.6c2.3,24.25 0.8,20.56 4.1,32.48c3.3,11.91 14.9,46.71 19.2,56.93c4.4,10.23 9.1,22.89 9.1,22.89l-15.3,0c0,0 -30.2,-33.22 -43,-53.25c-12.8,-20.04 -28.6,-55.57 -28.6,-55.57c0,0 -17,37.12 -23.9,52.51c-6.9,15.5 -24.2,56.94 -24.2,56.94l-12.5,-3.48z" fill="#4E3734" id="svg_78"/>
   <path d="m426.9,386.11c16.13,0 29.2,-13.78 29.2,-30.79c0,-17 -13.07,-30.79 -29.2,-30.79c-16.13,0 -29.2,13.79 -29.2,30.79c0,17.01 13.07,30.79 29.2,30.79z" fill="#DF8E89" id="svg_79"/>
   <path d="m451.9,371.35c2.7,-4.64 4.3,-10.23 4.3,-16.03c0,-17.08 -13.1,-30.79 -29.2,-30.79c-6,0 -11.5,1.9 -16.1,5.17c0,0 -3.2,11.07 4.6,18.35c7.9,7.38 16.4,3.16 16.4,3.16c0,0 -3.3,10.65 5.3,17.29c7.3,5.7 14.7,2.85 14.7,2.85z" fill="#4E3734" id="svg_80"/>
   <path d="m455.2,342.88c13.81,0 25,-11.8 25,-26.36c0,-14.56 -11.19,-26.36 -25,-26.36c-13.81,0 -25,11.8 -25,26.36c0,14.56 11.19,26.36 25,26.36z" fill="#4E3734" id="svg_81"/>
   <path d="m428.1,542.8c0,0 -1,7.17 -1.8,10.97c-0.8,3.79 -1.6,6.53 -1.6,6.53l8.6,18.46c0,0 0.4,-15.29 -1.2,-23.83c-1.6,-8.54 -4,-12.13 -4,-12.13z" fill="#362E2D" id="svg_82"/>
   <path d="m364.2,666.17c0,0 -9.9,1.79 -15,2.43c-5.1,0.63 -11.7,2.42 -12.3,4.95c-0.6,2.53 8.2,5.06 22,6.64c13.8,1.48 15,3.17 16.2,-5.06c0.5,-3.79 1.4,-5.27 1.4,-5.27l-12.3,-3.69z" fill="#FF353A" id="svg_83"/>
   <path d="m498.9,669.23c0,0 -9.1,1.68 -13.9,3.79c-4.8,2.11 -8.5,4.33 -8.5,6.96c0,2.01 8.7,1.37 22.3,1.48c13.9,0.1 17.8,0.42 15.4,-7.49c-0.8,-2.74 -3.1,-4.95 -3.1,-4.95l-12.2,0.21z" fill="#FF353A" id="svg_84"/>
   <path d="m335.5,450.01c0,0 -4.6,-6.01 -7.8,-7.91c-3.2,-1.9 -8.7,-4 -11.3,-5.59c-2.6,-1.58 -7.8,-5.27 -9.3,-2.84c-1.5,2.42 0.8,6.64 4.4,8.85c3.6,2.32 9.2,12.45 14.5,13.18c5.3,0.74 7.6,0.95 7.6,0.95l1.9,-6.64z" fill="#DF8E89" id="svg_85"/>
   <path d="m512.6,488.29c0,0 2.3,-0.95 5.7,2.63c3.4,3.59 6.6,11.81 7.8,14.87c1.2,3.06 1.5,6.12 2.6,8.22c1.1,2.22 1.4,4.54 0,5.38c-1.4,0.85 -5.6,-2.53 -8.9,-6.01c-3.3,-3.48 -7.3,-5.8 -9.4,-10.54c-2,-4.54 -1.8,-8.23 -1.8,-8.23l4,-6.32z" fill="#DF8E89" id="svg_86"/>
   <path d="m337,445.16c0,0 15.6,2.95 21.1,4.01c5.5,1.05 12,2.32 12,2.32c0,0 15.5,-20.88 26.1,-32.37c10.6,-11.39 16.4,-19.3 32.1,-19.3c20.2,0 43.9,26.99 56.8,42.91c14.9,18.46 29.1,43.02 29.1,43.02l-7.8,12.45c0,0 -18.1,-14.45 -25.3,-18.67c-7.2,-4.21 -17.7,-9.8 -17.7,-9.8c0,0 3.8,10.86 6.4,22.99c2.6,12.12 3,19.29 3,19.29c0,0 -16.7,11.92 -46.1,13.71c-29.4,1.79 -48.2,-4.75 -48.2,-4.75c0,0 1.6,-11.91 3.3,-19.71c1.7,-7.7 3.6,-14.56 3.6,-14.56c0,0 -10.6,0.95 -24.3,-4.11c-17.8,-6.54 -28.9,-21.19 -28.9,-21.19l4.8,-16.24z" fill="#7B6DCF" id="svg_87"/>
   <path d="m385.3,486.81c0,0 -2.5,9.49 -3.2,12.86c-0.7,3.38 -1.5,7.6 -1.5,7.6c0,0 31.4,-32.38 38.2,-40.28c6.8,-7.91 18.9,-21.94 18.6,-34.27c-0.3,-12.34 -2.6,-15.08 -2.6,-15.08c0,0 1.4,7.91 -1.3,16.03c-3.8,11.28 -19.6,25.94 -27.1,33.32c-6.2,6.22 -21.1,19.82 -21.1,19.82z" fill="#6A5AC1" id="svg_88"/>
   <path d="m454.4,436.62c0,0 4.1,12.44 5.7,18.24c1.6,5.8 3.2,14.87 3.2,14.87l6,3.27c0,0 -4.3,-13.18 -7,-20.46c-2.7,-7.28 -7.9,-15.92 -7.9,-15.92z" fill="#6A5AC1" id="svg_89"/>
   <path d="m457.8,478.16l-0.5,4.54l3.2,2.95l-4.1,0.84l-1.7,4.12l-2.1,-3.91l-4.3,-0.31l2.9,-3.38l-0.9,-4.32l3.8,1.79l3.7,-2.32z" fill="#FF6ED9" id="svg_90"/>
   <path d="m472.7,512.12c0,0 -0.1,-1.8 -0.5,-5.17l-2,2.53l-3.5,-0.32l1.9,3.17l-1.3,3.05c3.6,-2 5.4,-3.26 5.4,-3.26z" fill="#FF6ED9" id="svg_91"/>
   <path d="m389.4,429.98l1.6,2.95l1.3,-3.17l3.2,-0.73l-2.5,-2.22l0.4,-3.37l-2,1.26c-1.4,1.59 -2.8,3.27 -4.2,5.06l2.2,0.22z" fill="#FF6ED9" id="svg_92"/>
   <path d="m390,523.82l3.5,-0.84l-3.3,-2.85l0.4,-4.43l-3.6,2.43l-3.9,-1.69l1.1,4.32l-1.3,1.58c1.8,0.43 4.2,0.95 7.1,1.48z" fill="#FF6ED9" id="svg_93"/>
   <path d="m440.4,509.16l2.4,0.74l1.9,-1.79l0.1,2.64l2.2,1.37l-2.3,0.95l-0.6,2.53l-1.6,-2.01l-2.4,0.21l1.3,-2.21l-1,-2.43z" fill="#FF6ED9" id="svg_94"/>
   <path d="m392.4,458.02l3.1,0.85l2.5,-2.22l0.2,3.48l2.7,1.69l-3,1.27l-0.7,3.26l-2.1,-2.63l-3.2,0.31l1.8,-2.84l-1.3,-3.17z" fill="#FF6ED9" id="svg_95"/>
   <path d="m502.1,466.35l-0.3,0.22l-3.1,-0.85l1.3,3.16l-1.7,2.85l3.2,-0.32l2,2.64l0.7,-3.27l0.6,-0.21c-0.8,-1.37 -1.7,-2.74 -2.7,-4.22z" fill="#FF6ED9" id="svg_96"/>
   <path d="m427.7,464.77l1.7,0.42l1.3,-1.16l0.1,1.8l1.5,0.95l-1.6,0.63l-0.4,1.79l-1.1,-1.37l-1.7,0.21l0.9,-1.58l-0.7,-1.69z" fill="#FF6ED9" id="svg_97"/>
   <path d="m369,476.69l1.4,-1.06l0,-1.79l1.4,1.05l1.6,-0.63l-0.5,1.79l1.1,1.48l-1.8,0l-1,1.48l-0.5,-1.79l-1.7,-0.53z" fill="#FF6ED9" id="svg_98"/>
   <path d="m501.9,489.87l1.7,0.42l1.3,-1.16l0.1,1.79l1.5,0.95l-1.6,0.74l-0.4,1.79l-1.1,-1.47l-1.7,0.21l0.9,-1.59l-0.7,-1.68z" fill="#FF6ED9" id="svg_99"/>
   <path d="m427.7,408.15l1.7,0.53l1.3,-1.27l0.1,1.9l1.5,0.95l-1.6,0.63l-0.4,1.79l-1.1,-1.37l-1.7,0.11l0.9,-1.58l-0.7,-1.69z" fill="#FF6ED9" id="svg_100"/>
   <path d="m471.9,441.05l1.7,0.42l1.3,-1.16l0.1,1.79l1.5,0.95l-1.6,0.63l-0.4,1.8l-1.1,-1.37l-1.8,0.21l1,-1.59l-0.7,-1.68z" fill="#FF6ED9" id="svg_101"/>
   <path d="m347.6,458.55l2.9,0.84l2.3,-2.1l0.2,3.16l2.6,1.69l-2.8,1.16l-0.7,3.16l-1.9,-2.53l-3.1,0.32l1.7,-2.75l-1.2,-2.95z" fill="#FF6ED9" id="svg_102"/>
   <path d="m409.6,490.61l5.2,4.21l6.1,-2.21l-2.1,6.43l3.8,5.48l-6.4,-0.1l-3.8,5.59l-1.9,-6.54l-6.1,-2.11l5.3,-3.9l-0.1,-6.85z" fill="#FF6ED9" id="svg_103"/>
   <path d="m412,423.44l4.1,3.27l4.9,-1.69l-1.7,5.06l3.1,4.43l-5.2,-0.11l-3,4.33l-1.5,-5.17l-4.8,-1.58l4.2,-3.16l-0.1,-5.38z" fill="#FF6ED9" id="svg_104"/>
   <path d="m481.1,468.57l-2.8,-4.54l-1.7,5.07l-5,1.37l4,3.37l-0.1,2.64c0.7,0.42 1.4,0.74 2,1.16l2.1,-1.48l4.8,2l-1.4,-5.16l3.3,-4.22l-5.2,-0.21z" fill="#FF6ED9" id="svg_105"/>
   <path d="m448.9,423.44l5.7,-3.27l5.8,3.06l-1.2,-6.75l0.8,-0.85c-2.5,-2.21 -5.1,-4.32 -7.7,-6.22l-0.6,1.48l-6.4,1.16l4.7,4.64l-1.1,6.75z" fill="#FF6ED9" id="svg_106"/>
   <path d="m886.5,494.51c0,0 -3.8,39.01 11,84.67c14.8,45.66 32.8,88.15 32.8,88.15l15.3,0c0,0 2.5,-40.17 2,-66.54c-0.5,-26.36 -0.8,-46.18 -0.8,-46.18c0,0 11.9,12.23 18.5,16.66c6.6,4.43 14.4,4.11 23.5,2.22c9.1,-1.9 53.9,-13.61 53.9,-13.61l-1,-13.18c0,0 -19.5,-6.64 -31.6,-8.96c-12.1,-2.32 -25.8,-6.86 -25.8,-6.86c0,0 -5.9,-17.6 -12.9,-32.26c-7,-14.66 -9.8,-19.4 -9.8,-19.4l-75.1,15.29z" fill="#7B6DCF" id="svg_107"/>
   <path d="m946.8,554.61c0,0 -8.9,-7.59 -14.9,-14.45c-6,-6.85 -10.6,-14.34 -10.6,-14.34c0,0 6.4,15.71 14.6,24.26c7.6,8.01 11,10.01 11,10.01l-0.1,-5.48z" fill="#6A5AC1" id="svg_108"/>
   <path d="m939.3,579.5l-8.2,-7.7l10.4,0.42l-2.2,7.28z" fill="#FF6ED9" id="svg_109"/>
   <path d="m917.9,557.35l4,-6.75l0.9,7.49l-4.9,-0.74z" fill="#FF6ED9" id="svg_110"/>
   <path d="m939.1,652.36l-2.8,-7.49l6.3,3.69l-3.5,3.8z" fill="#FF6ED9" id="svg_111"/>
   <path d="m953.1,509.9l1.8,8.33l-7.5,-2.74l5.7,-5.59z" fill="#FF6ED9" id="svg_112"/>
   <path d="m921.8,629.79l4.8,-0.63l-2,4.64l-2.8,-4.01z" fill="#FF6ED9" id="svg_113"/>
   <path d="m973.3,543.33l4.9,-0.74l-2.1,4.75l-2.8,-4.01z" fill="#FF6ED9" id="svg_114"/>
   <path d="m993.2,551.97l3.6,-6.53l3.6,6.01l-7.2,0.52z" fill="#FF6ED9" id="svg_115"/>
   <path d="m1031.3,555.77l5,-4.96l2.8,4.54l-7.8,0.42z" fill="#FF6ED9" id="svg_116"/>
   <path d="m924.5,506.32l0.7,-5.17l3.7,3.48l-4.4,1.69z" fill="#FF6ED9" id="svg_117"/>
   <path d="m909.7,589.62l8.1,8.64l-11,2.64l2.9,-11.28z" fill="#FF6ED9" id="svg_118"/>
   <path d="m955.2,536.9l-3.8,11.49l-7.1,-9.28l10.9,-2.21z" fill="#FF6ED9" id="svg_119"/>
   <path d="m1010.8,542.59l9.3,9.17l-10.4,4.85l1.1,-14.02z" fill="#FF6ED9" id="svg_120"/>
   <path d="m903.5,520.02l7,9.18l2.5,-9.18l-9.5,0z" fill="#FF6ED9" id="svg_121"/>
   <path d="m971.4,498.62c-0.2,-0.53 -0.5,-0.95 -0.7,-1.48l-3.2,-2.53l0.6,18.14l7.1,-5.8c-1.2,-2.74 -2.5,-5.59 -3.8,-8.33z" fill="#FF6ED9" id="svg_122"/>
   <path d="m886.1,507.69c0,2.42 0.1,5.06 0.2,8.01l4.7,0.74l-4.5,-9.07l-0.4,0.32z" fill="#FF6ED9" id="svg_123"/>
   <path d="m947.6,610.5c0,-3.38 0,-6.65 -0.1,-9.71c0,-0.63 0,-1.26 0,-1.89l-15.4,5.16l15.5,6.44z" fill="#FF6ED9" id="svg_124"/>
   <path d="m988.1,560.09l-11.9,8.54l9.1,5.59c1.1,-0.21 2.2,-0.42 3.4,-0.63c0.9,-0.21 2.3,-0.53 3.9,-0.84l-4.5,-12.66z" fill="#FF6ED9" id="svg_125"/>
   <path d="m892.6,561.78l10.6,0l-9.6,-20.88l-2.9,12.55c0.7,2.74 1.3,5.48 1.9,8.33z" fill="#FF6ED9" id="svg_126"/>
   <path d="m926.2,362.28c16.13,0 29.2,-13.78 29.2,-30.79c0,-17 -13.07,-30.79 -29.2,-30.79c-16.13,0 -29.2,13.79 -29.2,30.79c0,17.01 13.07,30.79 29.2,30.79z" fill="#8C503E" id="svg_127"/>
   <path d="m1042.5,559.88c0,0 2.6,10.97 4.2,16.24c1.6,5.17 4.6,11.71 7,11.81c2.5,0.11 3.1,-9.59 1.7,-24.36c-1.4,-14.76 -0.2,-16.76 -8.3,-16.66c-3.6,0 -5.5,-0.21 -5.5,-0.21l0.9,13.18z" fill="#4E3734" id="svg_128"/>
   <path d="m930.3,667.33c0,0 -10.4,2.32 -16.1,4.64c-5.7,2.32 -10.1,4.85 -10.1,7.8c0,2.32 10.4,1.58 26.6,1.58c16.6,0.11 21.3,0.53 18.4,-8.33c-1,-3.05 -3.5,-5.8 -3.5,-5.8l-15.3,0l0,0.11z" fill="#4E3734" id="svg_129"/>
   <path d="m872.1,290.79c0,0 -2.4,-7.49 -2.1,-11.6c0.3,-4.11 1.5,-10.44 1.7,-13.81c0.2,-3.38 0,-10.23 2.8,-10.44c2.8,-0.21 4.9,4.11 4.8,8.75c-0.1,4.64 5,15.29 2.7,20.77c-2.3,5.49 -3.4,7.81 -3.4,7.81l-6.5,-1.48z" fill="#8C503E" id="svg_130"/>
   <path d="m1043.1,377.89c0,0 7.1,-2.53 10,-5.17c2.9,-2.64 7,-7.49 9.5,-9.7c2.5,-2.21 7.8,-6.22 6.2,-8.65c-1.6,-2.42 -6.1,-1.68 -9.6,1.27c-3.4,2.85 -14.6,4.95 -17.4,10.12c-2.8,5.17 -3.8,7.59 -3.8,7.59l5.1,4.54z" fill="#8C503E" id="svg_131"/>
   <path d="m866.3,288.89l16.5,4.01c0,0 -1.6,42.39 -0.3,48.19c1.8,7.59 31.8,32.68 31.8,32.68c0,0 32.5,0.32 43,4.54c10.5,4.22 21.5,11.91 31.5,12.65c10,0.74 46.8,-22.14 46.8,-22.14l11.8,12.65c0,0 -10.5,14.66 -17.8,21.93c-9.5,9.49 -25,22.67 -35.8,24.26c-10.8,1.58 -44.3,-11.6 -44.3,-11.6c0,0 7.5,27.41 13.2,39.33c5.8,11.91 11.3,20.56 11.3,20.56c0,0 -25.9,16.34 -47.8,20.88c-21.9,4.53 -46.7,0 -46.7,0c0,0 -6.8,-19.3 -1.5,-50.62c5.3,-31.31 9,-39.01 9,-39.01c0,0 -26.3,-37.64 -30.5,-53.04c-4.2,-15.39 9.8,-65.27 9.8,-65.27z" fill="#FF6ED9" id="svg_132"/>
   <path d="m935.8,400.24c0,0 4.8,7.7 8.2,10.86c3.3,3.06 5.6,4.96 5.6,4.96l5.1,17.29c0,0 -9.3,-7.28 -12.8,-14.45c-3.7,-7.27 -6.1,-18.66 -6.1,-18.66z" fill="#FF5ED2" id="svg_133"/>
   <path d="m887,406.99c0,0 3.6,-10.65 9.9,-18.45c7.2,-8.75 17.3,-14.77 17.3,-14.77l-3.3,-2.74c0,0 -9.1,3.69 -17.2,13.18c-7,8.23 -9.9,18.35 -9.9,18.35l3.2,4.43z" fill="#FF5ED2" id="svg_134"/>
   <path d="m955.5,331.49c0,-17.08 -13.1,-30.79 -29.2,-30.79c-6.6,0 -12.8,2.32 -17.7,6.33c0,0 -7.1,10.02 2.7,16.45c9.8,6.43 16.6,1.69 16.6,1.69c0,0 2.5,2.31 2.3,6.43c-0.5,7.69 -10.3,9.49 -10.1,19.4c0.3,13.71 14.8,11.6 14.8,18.87c0,6.33 -7.7,10.23 -8.4,18.67c-0.7,8.64 3.2,15.08 9.2,16.45c19.6,4.53 25.8,-19.51 26.8,-26.26c1,-6.75 -1.4,-19.82 -5,-32.58c-1.1,-4.11 -2,-14.66 -2,-14.66z" fill="white" id="svg_135"/>
   <path d="m888.03,230.78l-40.09,27.05l16.86,27.8l40.1,-27.05l-16.87,-27.8z" fill="#4F3D9D" id="svg_136"/>
   <path d="m884.1,229l3.6,1.69l13.1,27.52l-35.8,25.62l-19.7,5.06l0,-32.9l38.8,-26.99z" fill="white" id="svg_137"/>
   <path d="m884.3,262.64l-40.1,27.1l-0.1,-33.75l40,-26.99l0.2,33.64z" fill="#5441AF" id="svg_138"/>
   <path d="m884.1,229l3.8,1.9l0.2,0.63l-4,-1.58l0,-0.95z" fill="#4F3D9D" id="svg_139"/>
   <path d="m886.9,231l8.9,26.79l-38.2,27.94l7.4,-1.9l35.8,-25.62l-12.7,-26.68l-1.2,-0.53z" fill="#F7F7F7" id="svg_140"/>
   <path d="m877.5,282.04l0.7,-7.7l2.9,-2l0.8,3.16l-4.4,6.54z" fill="#8C503E" id="svg_141"/>
   <rect fill="#FFEFF0" height="17.5" id="svg_142" transform="matrix(-0.710564 0.703633 -0.665093 -0.74676 129.282 539.751)" width="5.13" x="8.74" y="77.87"/>
  </g>
  <path d="m751.4,261l28.68,-42l7.14,0l-28.68,42l-7.14,0zm3.66,-19.32c-2.04,0 -3.84,-0.46 -5.4,-1.38c-1.56,-0.96 -2.8,-2.3 -3.72,-4.02c-0.88,-1.76 -1.32,-3.82 -1.32,-6.18c0,-2.36 0.44,-4.4 1.32,-6.12c0.92,-1.72 2.16,-3.06 3.72,-4.02c1.56,-0.96 3.36,-1.44 5.4,-1.44c2.04,0 3.84,0.48 5.4,1.44c1.56,0.96 2.78,2.3 3.66,4.02c0.88,1.72 1.32,3.76 1.32,6.12c0,2.36 -0.44,4.42 -1.32,6.18c-0.88,1.72 -2.1,3.06 -3.66,4.02c-1.56,0.92 -3.36,1.38 -5.4,1.38zm0,-4.92c1.32,0 2.38,-0.54 3.18,-1.62c0.8,-1.12 1.2,-2.8 1.2,-5.04c0,-2.24 -0.4,-3.9 -1.2,-4.98c-0.8,-1.12 -1.86,-1.68 -3.18,-1.68c-1.28,0 -2.34,0.56 -3.18,1.68c-0.8,1.08 -1.2,2.74 -1.2,4.98c0,2.2 0.4,3.86 1.2,4.98c0.84,1.12 1.9,1.68 3.18,1.68zm28.5,24.72c-2,0 -3.8,-0.46 -5.4,-1.38c-1.56,-0.96 -2.78,-2.3 -3.66,-4.02c-0.88,-1.76 -1.32,-3.82 -1.32,-6.18c0,-2.36 0.44,-4.4 1.32,-6.12c0.88,-1.72 2.1,-3.06 3.66,-4.02c1.6,-0.96 3.4,-1.44 5.4,-1.44c2.08,0 3.9,0.48 5.46,1.44c1.56,0.96 2.78,2.3 3.66,4.02c0.88,1.72 1.32,3.76 1.32,6.12c0,2.36 -0.44,4.42 -1.32,6.18c-0.88,1.72 -2.1,3.06 -3.66,4.02c-1.56,0.92 -3.38,1.38 -5.46,1.38zm0,-4.92c1.32,0 2.38,-0.54 3.18,-1.62c0.8,-1.12 1.2,-2.8 1.2,-5.04c0,-2.2 -0.4,-3.86 -1.2,-4.98c-0.8,-1.12 -1.86,-1.68 -3.18,-1.68c-1.28,0 -2.34,0.56 -3.18,1.68c-0.8,1.08 -1.2,2.74 -1.2,4.98c0,2.24 0.4,3.92 1.2,5.04c0.84,1.08 1.9,1.62 3.18,1.62z" fill="#534FD2" id="svg_143"/>
  <path d="m746.4,256l28.68,-42l7.14,0l-28.68,42l-7.14,0zm3.66,-19.32c-2.04,0 -3.84,-0.46 -5.4,-1.38c-1.56,-0.96 -2.8,-2.3 -3.72,-4.02c-0.88,-1.76 -1.32,-3.82 -1.32,-6.18c0,-2.36 0.44,-4.4 1.32,-6.12c0.92,-1.72 2.16,-3.06 3.72,-4.02c1.56,-0.96 3.36,-1.44 5.4,-1.44c2.04,0 3.84,0.48 5.4,1.44c1.56,0.96 2.78,2.3 3.66,4.02c0.88,1.72 1.32,3.76 1.32,6.12c0,2.36 -0.44,4.42 -1.32,6.18c-0.88,1.72 -2.1,3.06 -3.66,4.02c-1.56,0.92 -3.36,1.38 -5.4,1.38zm0,-4.92c1.32,0 2.38,-0.54 3.18,-1.62c0.8,-1.12 1.2,-2.8 1.2,-5.04c0,-2.24 -0.4,-3.9 -1.2,-4.98c-0.8,-1.12 -1.86,-1.68 -3.18,-1.68c-1.28,0 -2.34,0.56 -3.18,1.68c-0.8,1.08 -1.2,2.74 -1.2,4.98c0,2.2 0.4,3.86 1.2,4.98c0.84,1.12 1.9,1.68 3.18,1.68zm28.5,24.72c-2,0 -3.8,-0.46 -5.4,-1.38c-1.56,-0.96 -2.78,-2.3 -3.66,-4.02c-0.88,-1.76 -1.32,-3.82 -1.32,-6.18c0,-2.36 0.44,-4.4 1.32,-6.12c0.88,-1.72 2.1,-3.06 3.66,-4.02c1.6,-0.96 3.4,-1.44 5.4,-1.44c2.08,0 3.9,0.48 5.46,1.44c1.56,0.96 2.78,2.3 3.66,4.02c0.88,1.72 1.32,3.76 1.32,6.12c0,2.36 -0.44,4.42 -1.32,6.18c-0.88,1.72 -2.1,3.06 -3.66,4.02c-1.56,0.92 -3.38,1.38 -5.46,1.38zm0,-4.92c1.32,0 2.38,-0.54 3.18,-1.62c0.8,-1.12 1.2,-2.8 1.2,-5.04c0,-2.2 -0.4,-3.86 -1.2,-4.98c-0.8,-1.12 -1.86,-1.68 -3.18,-1.68c-1.28,0 -2.34,0.56 -3.18,1.68c-0.8,1.08 -1.2,2.74 -1.2,4.98c0,2.24 0.4,3.92 1.2,5.04c0.84,1.08 1.9,1.62 3.18,1.62z" fill="white" id="svg_144"/>
  <path d="m564.44,183.55c7.76,0 14.98,1.7 21.66,5.1c6.67,3.4 12.01,8.19 16.01,14.38c4.01,6.19 6.01,13.28 6.01,21.29c0,8.86 -2.31,16.68 -6.92,23.48c-4.49,6.8 -10.68,12.01 -18.56,15.65c-7.89,3.64 -16.63,5.46 -26.21,5.46c-12.26,0 -22.99,-2.36 -32.21,-7.1c-9.1,-4.73 -16.2,-11.76 -21.3,-21.11c-5.09,-9.34 -7.64,-20.81 -7.64,-34.4c0,-14.56 2.91,-27.17 8.73,-37.85c5.95,-10.68 14.2,-18.81 24.76,-24.39c10.67,-5.58 23.05,-8.37 37.12,-8.37c7.65,0 14.93,0.91 21.84,2.73c6.92,1.7 12.8,4.12 17.66,7.28l-15.47,30.03c-6.31,-4.49 -14.02,-6.74 -23.12,-6.74c-7.4,0 -13.53,1.89 -18.38,5.65c-4.73,3.64 -7.82,8.98 -9.28,16.01c6.67,-4.73 15.11,-7.1 25.3,-7.1zm-10.92,55.7c3.88,0 7.03,-1.16 9.46,-3.46c2.43,-2.31 3.64,-5.46 3.64,-9.47c0,-4 -1.21,-7.15 -3.64,-9.46c-2.43,-2.43 -5.58,-3.64 -9.46,-3.64c-3.89,0 -7.04,1.21 -9.47,3.64c-2.42,2.31 -3.64,5.46 -3.64,9.46c0,4.01 1.22,7.16 3.64,9.47c2.43,2.3 5.58,3.46 9.47,3.46zm119.78,29.66c-11.29,0 -21.3,-2.61 -30.03,-7.82c-8.62,-5.34 -15.41,-12.99 -20.39,-22.94c-4.85,-10.07 -7.28,-22.02 -7.28,-35.85c0,-13.83 2.43,-25.72 7.28,-35.67c4.98,-10.07 11.77,-17.72 20.39,-22.93c8.73,-5.34 18.74,-8.01 30.03,-8.01c11.28,0 21.23,2.67 29.85,8.01c8.73,5.21 15.53,12.86 20.38,22.93c4.97,9.95 7.46,21.84 7.46,35.67c0,13.83 -2.49,25.78 -7.46,35.85c-4.85,9.95 -11.65,17.6 -20.38,22.94c-8.62,5.21 -18.57,7.82 -29.85,7.82zm0,-34.4c9.7,0 14.56,-10.73 14.56,-32.21c0,-21.48 -4.86,-32.21 -14.56,-32.21c-9.71,0 -14.56,10.73 -14.56,32.21c0,21.48 4.85,32.21 14.56,32.21z" fill="#534FD2" id="svg_145"/>
  <path d="m543.43,255.91c-12.13,0 -22.81,-2.3 -32.03,-6.91c-9.1,-4.74 -16.26,-11.71 -21.48,-20.93c-5.09,-9.35 -7.64,-20.93 -7.64,-34.77c0,-14.92 2.97,-27.6 8.92,-38.03c5.94,-10.56 14.19,-18.63 24.75,-24.21c10.68,-5.58 22.99,-8.37 36.94,-8.37c7.53,0 14.75,0.91 21.66,2.73c7.04,1.7 12.98,4.12 17.84,7.28l-15.47,30.03c-3.76,-2.67 -7.58,-4.43 -11.47,-5.28c-3.76,-0.97 -7.64,-1.46 -11.65,-1.46c-8.61,0 -15.53,2.61 -20.74,7.83c-5.1,5.1 -7.65,12.56 -7.65,22.39c0,1.82 0,3.64 0,5.46c0,1.7 0,3.45 0,5.27l-9.83,-7.09c2.43,-4.13 5.28,-7.59 8.56,-10.38c3.27,-2.91 7.16,-5.09 11.65,-6.55c4.48,-1.58 9.7,-2.37 15.65,-2.37c7.76,0 14.92,1.7 21.47,5.1c6.68,3.28 12.02,7.95 16.02,14.01c4.12,6.07 6.19,13.29 6.19,21.66c0,9.1 -2.31,16.99 -6.92,23.66c-4.61,6.67 -10.86,11.83 -18.74,15.47c-7.77,3.64 -16.45,5.46 -26.03,5.46zm-2.91,-29.66c2.55,0 4.79,-0.49 6.73,-1.46c2.07,-1.09 3.64,-2.61 4.73,-4.55c1.1,-1.94 1.64,-4.25 1.64,-6.92c0,-4 -1.21,-7.15 -3.64,-9.46c-2.43,-2.43 -5.58,-3.64 -9.46,-3.64c-2.55,0 -4.79,0.55 -6.74,1.64c-1.94,1.09 -3.52,2.61 -4.73,4.55c-1.09,1.94 -1.64,4.24 -1.64,6.91c0,2.67 0.55,4.98 1.64,6.92c1.21,1.94 2.79,3.46 4.73,4.55c1.95,0.97 4.19,1.46 6.74,1.46zm119.78,29.66c-11.29,0 -21.3,-2.61 -30.03,-7.82c-8.62,-5.22 -15.41,-12.8 -20.39,-22.75c-4.85,-9.95 -7.28,-21.96 -7.28,-36.04c0,-14.08 2.43,-26.09 7.28,-36.04c4.98,-9.95 11.77,-17.53 20.39,-22.75c8.73,-5.21 18.74,-7.82 30.03,-7.82c11.28,0 21.23,2.61 29.85,7.82c8.73,5.22 15.53,12.8 20.38,22.75c4.97,9.95 7.46,21.96 7.46,36.04c0,14.08 -2.49,26.09 -7.46,36.04c-4.85,9.95 -11.65,17.53 -20.38,22.75c-8.62,5.21 -18.57,7.82 -29.85,7.82zm0,-34.4c2.79,0 5.28,-0.97 7.46,-2.91c2.18,-1.94 3.88,-5.28 5.1,-10.01c1.33,-4.73 2,-11.16 2,-19.29c0,-8.25 -0.67,-14.68 -2,-19.29c-1.22,-4.73 -2.92,-8.07 -5.1,-10.01c-2.18,-1.94 -4.67,-2.91 -7.46,-2.91c-2.79,0 -5.28,0.97 -7.46,2.91c-2.19,1.94 -3.95,5.28 -5.28,10.01c-1.21,4.61 -1.82,11.04 -1.82,19.29c0,8.13 0.61,14.56 1.82,19.29c1.33,4.73 3.09,8.07 5.28,10.01c2.18,1.94 4.67,2.91 7.46,2.91z" fill="white" id="svg_146"/>
  <path d="m331.94,168.48c-2.68,0 -5.08,-0.52 -7.2,-1.56c-2.08,-1.04 -3.7,-2.62 -4.86,-4.74c-1.16,-2.16 -1.74,-4.9 -1.74,-8.22l0,-18.24l9.36,0l0,16.86c0,2.68 0.56,4.66 1.68,5.94c1.16,1.24 2.78,1.86 4.86,1.86c1.44,0 2.72,-0.3 3.84,-0.9c1.12,-0.64 2,-1.6 2.64,-2.88c0.64,-1.32 0.96,-2.96 0.96,-4.92l0,-15.96l9.36,0l0,32.28l-8.88,0l0,-8.88l1.62,2.58c-1.08,2.24 -2.68,3.94 -4.8,5.1c-2.08,1.12 -4.36,1.68 -6.84,1.68zm46.65,0c-2.72,0 -5.1,-0.6 -7.14,-1.8c-2.04,-1.2 -3.64,-3.02 -4.8,-5.46c-1.12,-2.48 -1.68,-5.6 -1.68,-9.36c0,-3.8 0.54,-6.92 1.62,-9.36c1.08,-2.44 2.64,-4.26 4.68,-5.46c2.04,-1.2 4.48,-1.8 7.32,-1.8c3.04,0 5.76,0.7 8.16,2.1c2.44,1.36 4.36,3.28 5.76,5.76c1.44,2.48 2.16,5.4 2.16,8.76c0,3.4 -0.72,6.34 -2.16,8.82c-1.4,2.48 -3.32,4.4 -5.76,5.76c-2.4,1.36 -5.12,2.04 -8.16,2.04zm-19.08,11.16l0,-43.92l8.94,0l0,6.6l-0.18,9.6l0.6,9.54l0,18.18l-9.36,0zm17.46,-18.84c1.56,0 2.94,-0.36 4.14,-1.08c1.24,-0.72 2.22,-1.74 2.94,-3.06c0.76,-1.36 1.14,-2.96 1.14,-4.8c0,-1.88 -0.38,-3.48 -1.14,-4.8c-0.72,-1.32 -1.7,-2.34 -2.94,-3.06c-1.2,-0.72 -2.58,-1.08 -4.14,-1.08c-1.56,0 -2.96,0.36 -4.2,1.08c-1.24,0.72 -2.22,1.74 -2.94,3.06c-0.72,1.32 -1.08,2.92 -1.08,4.8c0,1.84 0.36,3.44 1.08,4.8c0.72,1.32 1.7,2.34 2.94,3.06c1.24,0.72 2.64,1.08 4.2,1.08zm54.16,7.68c-3.8,0 -6.76,-0.96 -8.88,-2.88c-2.12,-1.96 -3.18,-4.86 -3.18,-8.7l0,-28.32l9.36,0l0,28.2c0,1.36 0.36,2.42 1.08,3.18c0.72,0.72 1.7,1.08 2.94,1.08c1.48,0 2.74,-0.4 3.78,-1.2l2.52,6.6c-0.96,0.68 -2.12,1.2 -3.48,1.56c-1.32,0.32 -2.7,0.48 -4.14,0.48zm-17.04,-24.84l0,-7.2l22.38,0l0,7.2l-22.38,0zm44.28,24.84c-3.44,0 -6.5,-0.72 -9.18,-2.16c-2.64,-1.44 -4.74,-3.4 -6.3,-5.88c-1.52,-2.52 -2.28,-5.38 -2.28,-8.58c0,-3.24 0.76,-6.1 2.28,-8.58c1.56,-2.52 3.66,-4.48 6.3,-5.88c2.68,-1.44 5.74,-2.16 9.18,-2.16c3.4,0 6.44,0.72 9.12,2.16c2.68,1.4 4.78,3.34 6.3,5.82c1.52,2.48 2.28,5.36 2.28,8.64c0,3.2 -0.76,6.06 -2.28,8.58c-1.52,2.48 -3.62,4.44 -6.3,5.88c-2.68,1.44 -5.72,2.16 -9.12,2.16zm0,-7.68c1.56,0 2.96,-0.36 4.2,-1.08c1.24,-0.72 2.22,-1.74 2.94,-3.06c0.72,-1.36 1.08,-2.96 1.08,-4.8c0,-1.88 -0.36,-3.48 -1.08,-4.8c-0.72,-1.32 -1.7,-2.34 -2.94,-3.06c-1.24,-0.72 -2.64,-1.08 -4.2,-1.08c-1.56,0 -2.96,0.36 -4.2,1.08c-1.24,0.72 -2.24,1.74 -3,3.06c-0.72,1.32 -1.08,2.92 -1.08,4.8c0,1.84 0.36,3.44 1.08,4.8c0.76,1.32 1.76,2.34 3,3.06c1.24,0.72 2.64,1.08 4.2,1.08z" fill="#534FD2" id="svg_147"/>
  <path d="m326.94,163.48c-2.68,0 -5.08,-0.52 -7.2,-1.56c-2.08,-1.04 -3.7,-2.62 -4.86,-4.74c-1.16,-2.16 -1.74,-4.9 -1.74,-8.22l0,-18.24l9.36,0l0,16.86c0,2.68 0.56,4.66 1.68,5.94c1.16,1.24 2.78,1.86 4.86,1.86c1.44,0 2.72,-0.3 3.84,-0.9c1.12,-0.64 2,-1.6 2.64,-2.88c0.64,-1.32 0.96,-2.96 0.96,-4.92l0,-15.96l9.36,0l0,32.28l-8.88,0l0,-8.88l1.62,2.58c-1.08,2.24 -2.68,3.94 -4.8,5.1c-2.08,1.12 -4.36,1.68 -6.84,1.68zm46.65,0c-2.72,0 -5.1,-0.6 -7.14,-1.8c-2.04,-1.2 -3.64,-3.02 -4.8,-5.46c-1.12,-2.48 -1.68,-5.6 -1.68,-9.36c0,-3.8 0.54,-6.92 1.62,-9.36c1.08,-2.44 2.64,-4.26 4.68,-5.46c2.04,-1.2 4.48,-1.8 7.32,-1.8c3.04,0 5.76,0.7 8.16,2.1c2.44,1.36 4.36,3.28 5.76,5.76c1.44,2.48 2.16,5.4 2.16,8.76c0,3.4 -0.72,6.34 -2.16,8.82c-1.4,2.48 -3.32,4.4 -5.76,5.76c-2.4,1.36 -5.12,2.04 -8.16,2.04zm-19.08,11.16l0,-43.92l8.94,0l0,6.6l-0.18,9.6l0.6,9.54l0,18.18l-9.36,0zm17.46,-18.84c1.56,0 2.94,-0.36 4.14,-1.08c1.24,-0.72 2.22,-1.74 2.94,-3.06c0.76,-1.36 1.14,-2.96 1.14,-4.8c0,-1.88 -0.38,-3.48 -1.14,-4.8c-0.72,-1.32 -1.7,-2.34 -2.94,-3.06c-1.2,-0.72 -2.58,-1.08 -4.14,-1.08c-1.56,0 -2.96,0.36 -4.2,1.08c-1.24,0.72 -2.22,1.74 -2.94,3.06c-0.72,1.32 -1.08,2.92 -1.08,4.8c0,1.84 0.36,3.44 1.08,4.8c0.72,1.32 1.7,2.34 2.94,3.06c1.24,0.72 2.64,1.08 4.2,1.08zm54.16,7.68c-3.8,0 -6.76,-0.96 -8.88,-2.88c-2.12,-1.96 -3.18,-4.86 -3.18,-8.7l0,-28.32l9.36,0l0,28.2c0,1.36 0.36,2.42 1.08,3.18c0.72,0.72 1.7,1.08 2.94,1.08c1.48,0 2.74,-0.4 3.78,-1.2l2.52,6.6c-0.96,0.68 -2.12,1.2 -3.48,1.56c-1.32,0.32 -2.7,0.48 -4.14,0.48zm-17.04,-24.84l0,-7.2l22.38,0l0,7.2l-22.38,0zm44.28,24.84c-3.44,0 -6.5,-0.72 -9.18,-2.16c-2.64,-1.44 -4.74,-3.4 -6.3,-5.88c-1.52,-2.52 -2.28,-5.38 -2.28,-8.58c0,-3.24 0.76,-6.1 2.28,-8.58c1.56,-2.52 3.66,-4.48 6.3,-5.88c2.68,-1.44 5.74,-2.16 9.18,-2.16c3.4,0 6.44,0.72 9.12,2.16c2.68,1.4 4.78,3.34 6.3,5.82c1.52,2.48 2.28,5.36 2.28,8.64c0,3.2 -0.76,6.06 -2.28,8.58c-1.52,2.48 -3.62,4.44 -6.3,5.88c-2.68,1.44 -5.72,2.16 -9.12,2.16zm0,-7.68c1.56,0 2.96,-0.36 4.2,-1.08c1.24,-0.72 2.22,-1.74 2.94,-3.06c0.72,-1.36 1.08,-2.96 1.08,-4.8c0,-1.88 -0.36,-3.48 -1.08,-4.8c-0.72,-1.32 -1.7,-2.34 -2.94,-3.06c-1.24,-0.72 -2.64,-1.08 -4.2,-1.08c-1.56,0 -2.96,0.36 -4.2,1.08c-1.24,0.72 -2.24,1.74 -3,3.06c-0.72,1.32 -1.08,2.92 -1.08,4.8c0,1.84 0.36,3.44 1.08,4.8c0.76,1.32 1.76,2.34 3,3.06c1.24,0.72 2.64,1.08 4.2,1.08z" fill="white" id="svg_148"/>
  <path d="m430.52,94l0,-17.5l8.21,0c2.09,0 3.7,0.42 4.79,1.25c1.11,0.82 1.66,1.92 1.66,3.3c0,0.93 -0.22,1.73 -0.66,2.4c-0.43,0.65 -1.01,1.16 -1.75,1.52c-0.71,0.35 -1.5,0.53 -2.34,0.53l0.45,-0.9c0.98,0 1.86,0.18 2.64,0.55c0.79,0.35 1.41,0.87 1.86,1.55c0.46,0.68 0.69,1.53 0.69,2.55c0,1.5 -0.57,2.67 -1.72,3.5c-1.15,0.83 -2.86,1.25 -5.12,1.25l-8.71,0zm3.25,-2.55l5.25,0c1.22,0 2.16,-0.2 2.8,-0.6c0.66,-0.4 0.98,-1.04 0.98,-1.92c0,-0.87 -0.32,-1.5 -0.98,-1.9c-0.64,-0.42 -1.58,-0.63 -2.8,-0.63l-5.5,0l0,-2.52l4.86,0c1.13,0 2,-0.2 2.6,-0.6c0.61,-0.4 0.92,-1 0.92,-1.81c0,-0.81 -0.31,-1.42 -0.92,-1.82c-0.6,-0.4 -1.47,-0.6 -2.6,-0.6l-4.61,0l0,12.4zm15.77,2.55l0,-17.5l3.25,0l0,14.75l9.15,0l0,2.75l-12.4,0zm12.52,0l7.87,-17.5l3.2,0l7.9,17.5l-3.4,0l-6.77,-15.78l1.3,0l-6.75,15.78l-3.35,0zm3.62,-4.05l0.88,-2.55l9.45,0l0.87,2.55l-11.2,0zm25.44,4.3c-1.34,0 -2.58,-0.22 -3.73,-0.65c-1.13,-0.45 -2.12,-1.07 -2.97,-1.88c-0.84,-0.81 -1.49,-1.77 -1.95,-2.87c-0.47,-1.1 -0.7,-2.3 -0.7,-3.6c0,-1.3 0.23,-2.5 0.7,-3.6c0.46,-1.1 1.12,-2.05 1.97,-2.85c0.85,-0.82 1.84,-1.44 2.98,-1.87c1.13,-0.46 2.37,-0.68 3.72,-0.68c1.43,0 2.74,0.25 3.93,0.75c1.18,0.48 2.18,1.21 3,2.18l-2.1,1.97c-0.64,-0.68 -1.35,-1.19 -2.13,-1.52c-0.78,-0.35 -1.63,-0.53 -2.55,-0.53c-0.92,0 -1.76,0.15 -2.52,0.45c-0.75,0.3 -1.41,0.73 -1.98,1.27c-0.55,0.56 -0.98,1.21 -1.3,1.96c-0.3,0.75 -0.45,1.57 -0.45,2.47c0,0.9 0.15,1.72 0.45,2.47c0.32,0.75 0.75,1.41 1.3,1.96c0.57,0.54 1.23,0.97 1.98,1.27c0.76,0.3 1.6,0.45 2.52,0.45c0.92,0 1.77,-0.17 2.55,-0.5c0.78,-0.35 1.49,-0.87 2.13,-1.58l2.1,2c-0.82,0.96 -1.82,1.68 -3,2.18c-1.19,0.5 -2.5,0.75 -3.95,0.75zm12.96,-4.37l-0.18,-3.85l9.18,-9.53l3.65,0l-7.62,8.1l-1.81,1.97l-3.22,3.31zm-2.9,4.12l0,-17.5l3.25,0l0,17.5l-3.25,0zm12.2,0l-6.7,-7.97l2.15,-2.38l8.35,10.35l-3.8,0zm15.9,-9.45l8.72,0l0,2.75l-8.72,0l0,-2.75zm0.27,9.45l-3.25,0l0,-17.5l12.78,0l0,2.72l-9.53,0l0,14.78zm12.67,0l0,-17.5l7.2,0c1.55,0 2.87,0.25 3.97,0.75c1.12,0.5 1.98,1.22 2.58,2.15c0.6,0.93 0.9,2.04 0.9,3.32c0,1.29 -0.3,2.4 -0.9,3.33c-0.6,0.92 -1.46,1.63 -2.58,2.13c-1.1,0.48 -2.42,0.72 -3.97,0.72l-5.4,0l1.45,-1.47l0,6.57l-3.25,0zm11.45,0l-4.42,-6.35l3.47,0l4.45,6.35l-3.5,0zm-8.2,-6.22l-1.45,-1.56l5.25,0c1.43,0 2.51,-0.3 3.23,-0.92c0.73,-0.62 1.1,-1.48 1.1,-2.58c0,-1.11 -0.37,-1.97 -1.1,-2.57c-0.72,-0.6 -1.8,-0.9 -3.23,-0.9l-5.25,0l1.45,-1.6l0,10.13zm15.04,6.22l0,-17.5l3.25,0l0,17.5l-3.25,0zm7.98,0l0,-17.5l7.65,0c1.9,0 3.57,0.37 5,1.1c1.43,0.73 2.55,1.75 3.35,3.05c0.8,1.3 1.2,2.83 1.2,4.6c0,1.75 -0.4,3.28 -1.2,4.6c-0.8,1.3 -1.92,2.32 -3.35,3.05c-1.43,0.73 -3.1,1.1 -5,1.1l-7.65,0zm3.25,-2.75l4.25,0c1.32,0 2.45,-0.25 3.4,-0.75c0.97,-0.5 1.71,-1.2 2.22,-2.1c0.54,-0.9 0.8,-1.95 0.8,-3.15c0,-1.22 -0.26,-2.27 -0.8,-3.15c-0.51,-0.9 -1.25,-1.6 -2.22,-2.1c-0.95,-0.5 -2.08,-0.75 -3.4,-0.75l-4.25,0l0,12zm14.68,2.75l7.88,-17.5l3.2,0l7.9,17.5l-3.4,0l-6.78,-15.78l1.3,0l-6.75,15.78l-3.35,0zm3.63,-4.05l0.87,-2.55l9.45,0l0.88,2.55l-11.2,0zm20.83,4.05l0,-6.93l0.72,2l-7.6,-12.57l3.48,0l6.1,10.13l-1.95,0l6.14,-10.13l3.21,0l-7.6,12.57l0.75,-2l0,6.93l-3.25,0zm24.56,0.25c-1.37,0 -2.68,-0.19 -3.93,-0.57c-1.25,-0.4 -2.24,-0.91 -2.97,-1.53l1.12,-2.52c0.7,0.55 1.57,1 2.6,1.37c1.04,0.37 2.09,0.55 3.18,0.55c0.91,0 1.66,-0.1 2.22,-0.3c0.57,-0.2 0.99,-0.47 1.25,-0.8c0.27,-0.35 0.4,-0.74 0.4,-1.17c0,-0.54 -0.19,-0.96 -0.57,-1.28c-0.39,-0.33 -0.89,-0.59 -1.5,-0.78c-0.6,-0.19 -1.28,-0.38 -2.03,-0.54c-0.73,-0.17 -1.47,-0.36 -2.22,-0.58c-0.74,-0.23 -1.41,-0.53 -2.03,-0.88c-0.6,-0.36 -1.09,-0.84 -1.47,-1.44c-0.39,-0.6 -0.58,-1.37 -0.58,-2.31c0,-0.94 0.25,-1.81 0.75,-2.59c0.52,-0.81 1.29,-1.44 2.33,-1.91c1.05,-0.48 2.37,-0.72 3.97,-0.72c1.05,0 2.09,0.13 3.13,0.4c1.03,0.27 1.93,0.65 2.7,1.15l-1.03,2.52c-0.78,-0.46 -1.59,-0.8 -2.42,-1.02c-0.84,-0.23 -1.64,-0.35 -2.4,-0.35c-0.9,0 -1.64,0.11 -2.2,0.33c-0.55,0.21 -0.96,0.5 -1.23,0.85c-0.25,0.34 -0.37,0.75 -0.37,1.19c0,0.54 0.18,0.97 0.55,1.31c0.38,0.31 0.87,0.56 1.47,0.75c0.62,0.18 1.3,0.36 2.05,0.55c0.75,0.16 1.49,0.35 2.23,0.57c0.75,0.22 1.42,0.5 2.02,0.85c0.62,0.35 1.11,0.83 1.48,1.43c0.38,0.6 0.57,1.35 0.57,2.27c0,0.93 -0.26,1.8 -0.77,2.6c-0.5,0.78 -1.28,1.42 -2.33,1.9c-1.05,0.47 -2.37,0.7 -3.97,0.7zm7.82,-0.25l7.87,-17.5l3.21,0l7.9,17.5l-3.4,0l-6.78,-15.78l1.3,0l-6.75,15.78l-3.35,0zm3.62,-4.05l0.88,-2.55l9.45,0l0.88,2.55l-11.21,0zm17.58,4.05l0,-17.5l3.25,0l0,14.75l9.15,0l0,2.75l-12.4,0zm17.97,-10.22l8.7,0l0,2.67l-8.7,0l0,-2.67zm0.25,7.5l9.87,0l0,2.72l-13.12,0l0,-17.5l12.77,0l0,2.72l-9.52,0l0,12.06z" fill="#1C2A39" id="svg_149"/>
 </g>
</svg>